<?xml version="1.0" standalone="no"?>
<!DOCTYPE svg PUBLIC "-//W3C//DTD SVG 20010904//EN"
 "http://www.w3.org/TR/2001/REC-SVG-20010904/DTD/svg10.dtd">
<svg version="1.0" xmlns="http://www.w3.org/2000/svg"
 width="595.000000pt" height="595.000000pt" viewBox="0 0 595.000000 595.000000"
 preserveAspectRatio="xMidYMid meet">
<metadata>
Created by potrace 1.11, written by Peter Selinger 2001-2013
</metadata>
<g transform="translate(0.000000,595.000000) scale(0.100000,-0.100000)"
fill="#000000" stroke="none">
<path d="M2787 5530 c-225 -18 -488 -73 -682 -145 -150 -55 -405 -184 -535
-270 -615 -409 -1012 -1034 -1126 -1775 -23 -145 -26 -537 -6 -680 46 -326
143 -624 292 -900 251 -464 666 -857 1145 -1086 962 -458 2107 -272 2869 466
429 416 683 919 768 1520 21 155 16 545 -10 705 -172 1062 -944 1883 -1988
2114 -206 46 -515 67 -727 51z m343 -2083 c175 -62 298 -207 331 -387 52 -290
-182 -570 -476 -570 -99 0 -152 12 -233 52 -182 90 -297 314 -264 514 13 79
65 190 116 250 122 143 349 203 526 141z m-956 -712 c88 -274 294 -477 571
-561 78 -23 108 -27 225 -28 148 -1 228 16 354 73 213 96 381 289 451 516 l22
70 657 3 658 2 -7 -62 c-24 -222 -98 -474 -204 -693 -316 -652 -933 -1101
-1651 -1200 -151 -21 -429 -21 -580 0 -454 63 -866 262 -1194 575 -373 357
-602 817 -661 1328 l-6 52 672 -2 671 -3 22 -70z"/>
</g>
</svg>
